<svg width="38" height="37" viewBox="0 0 38 37" fill="none" xmlns="http://www.w3.org/2000/svg">
<path d="M33.1773 28.9802C32.5152 28.0944 31.5358 27.4133 30.1145 27.6354C26.8292 28.1487 28.5745 25.582 26.2132 26.6087C24.3241 27.4301 22.9621 29.7572 22.5172 30.8181C22.3803 30.1678 21.8601 28.7442 20.8745 28.2514C19.6425 27.6354 19.2318 28.6621 18.5131 27.6354C17.7945 26.6087 17.7945 25.1714 17.1785 23.734C16.5625 22.2967 19.2318 20.1407 20.8745 20.962C22.5172 21.7834 23.5438 21.27 24.3652 22.502C25.1865 23.734 26.2132 25.274 26.2132 20.962C26.2132 16.65 28.2665 14.6993 29.1905 14.802C30.1145 14.9047 32.9892 13.8778 32.4759 12.8513C31.9625 11.8249 29.1905 11.3113 29.1905 10.3873C29.1905 9.46332 30.4225 7.51289 29.1905 6.58889C27.9585 5.66489 24.8785 3.81688 22.5172 4.02221C20.1558 4.22755 19.4283 5.15216 19.4283 5.97349C19.4283 6.79483 22.5172 8.33507 20.8745 9.36119C19.2318 10.3873 13.8931 12.0295 13.8931 10.3873C13.8931 8.74519 13.5851 5.25451 14.6118 5.25451C15.6385 5.25451 15.9465 2.68784 16.5625 2.79051C17.1785 2.89317 19.7452 1.76449 20.8745 2.2775C21.2207 2.43478 22.3583 2.13856 23.6392 1.60479M33.1773 28.9802C35.3333 26.0648 36.608 22.4581 36.608 18.5537C36.608 10.4452 31.1104 3.62088 23.6392 1.60479M33.1773 28.9802C29.98 33.3038 24.8446 36.1073 19.0544 36.1073C18.0235 36.1073 17.0135 36.0185 16.0314 35.848M16.0314 35.848C16.164 35.0843 16.3376 34.4532 16.5625 34.1034C17.4865 32.6661 20.5665 33.6927 20.8745 32.9741C21.1825 32.2554 19.8478 31.4341 18.5131 30.8181C17.1785 30.2021 14.9198 29.5861 14.6118 26.6087C14.3038 23.6314 12.8665 24.1447 12.5585 23.734C12.2505 23.3234 8.65711 22.194 7.52746 20.1407C6.39781 18.0874 7.52777 14.5967 7.52746 13.6727C7.52724 13.0195 4.69508 12.3184 2.7846 11.9516M16.0314 35.848C7.7773 34.4152 1.50073 27.2174 1.50073 18.5537C1.50073 16.2184 1.95675 13.9896 2.7846 11.9516M2.7846 11.9516C5.39347 5.52883 11.695 1 19.0544 1C20.6406 1 22.1777 1.21039 23.6392 1.60479" stroke="#FF70D9" stroke-width="1.5" stroke-linecap="square" stroke-linejoin="round"/>
</svg>
